<mxfile host="65bd71144e">
    <diagram id="C5RBs43oDa-KdzZeNtuy" name="Page-1">
        <mxGraphModel dx="1891" dy="996" grid="1" gridSize="10" guides="1" tooltips="1" connect="1" arrows="1" fold="1" page="0" pageScale="1" pageWidth="827" pageHeight="1169" background="none" math="0" shadow="0">
            <root>
                <mxCell id="WIyWlLk6GJQsqaUBKTNV-0"/>
                <mxCell id="WIyWlLk6GJQsqaUBKTNV-1" parent="WIyWlLk6GJQsqaUBKTNV-0"/>
                <mxCell id="32" value="Wandering" style="swimlane;fontSize=12;strokeColor=default;gradientColor=none;swimlaneFillColor=none;dashed=1;strokeWidth=1;perimeterSpacing=1;opacity=80;fillColor=none;fontStyle=1;swimlaneLine=0;" parent="WIyWlLk6GJQsqaUBKTNV-1" vertex="1">
                    <mxGeometry x="350" y="50" width="500" height="750" as="geometry"/>
                </mxCell>
                <mxCell id="2I1Crz_ZXlMl6JZm2lD2-74" value="Production" style="swimlane;fontStyle=0;childLayout=stackLayout;horizontal=1;startSize=20;horizontalStack=0;resizeParent=1;resizeParentMax=0;resizeLast=0;collapsible=1;marginBottom=0;rounded=1;shadow=0;glass=0;fillColor=none;" parent="32" vertex="1">
                    <mxGeometry x="100" y="280" width="140" height="50" as="geometry"/>
                </mxCell>
                <mxCell id="2I1Crz_ZXlMl6JZm2lD2-75" value="respond-standard" style="text;strokeColor=none;fillColor=none;align=center;verticalAlign=middle;spacingLeft=4;spacingRight=4;overflow=hidden;points=[[0,0.5],[1,0.5]];portConstraint=eastwest;rotatable=0;rounded=1;shadow=0;glass=0;" parent="2I1Crz_ZXlMl6JZm2lD2-74" vertex="1">
                    <mxGeometry y="20" width="140" height="30" as="geometry"/>
                </mxCell>
                <mxCell id="26" value="Positive Reward&lt;br&gt;(to attend)" style="rounded=0;whiteSpace=wrap;html=1;fontSize=12;fillColor=none;" parent="32" vertex="1">
                    <mxGeometry x="350" y="180" width="120" height="50" as="geometry"/>
                </mxCell>
                <mxCell id="36" value="" style="swimlane;startSize=0;fontSize=12;" parent="32" vertex="1">
                    <mxGeometry x="60" y="440" width="370" height="200" as="geometry"/>
                </mxCell>
                <mxCell id="48" value="" style="endArrow=none;html=1;fontSize=12;entryX=0.432;entryY=0.8;entryDx=0;entryDy=0;entryPerimeter=0;" parent="36" target="36" edge="1">
                    <mxGeometry width="50" height="50" relative="1" as="geometry">
                        <mxPoint x="70" y="70" as="sourcePoint"/>
                        <mxPoint x="160" y="160" as="targetPoint"/>
                    </mxGeometry>
                </mxCell>
                <mxCell id="49" value="" style="endArrow=none;html=1;fontSize=12;exitX=0.541;exitY=0.8;exitDx=0;exitDy=0;exitPerimeter=0;" parent="36" source="36" edge="1">
                    <mxGeometry width="50" height="50" relative="1" as="geometry">
                        <mxPoint x="160" y="160" as="sourcePoint"/>
                        <mxPoint x="200" y="90" as="targetPoint"/>
                    </mxGeometry>
                </mxCell>
                <mxCell id="57" value="" style="endArrow=none;html=1;fontSize=12;" parent="36" edge="1">
                    <mxGeometry width="50" height="50" relative="1" as="geometry">
                        <mxPoint x="160" y="160" as="sourcePoint"/>
                        <mxPoint x="200" y="160" as="targetPoint"/>
                    </mxGeometry>
                </mxCell>
                <mxCell id="58" value="" style="endArrow=none;html=1;fontSize=12;" parent="36" edge="1">
                    <mxGeometry width="50" height="50" relative="1" as="geometry">
                        <mxPoint x="270" y="160" as="sourcePoint"/>
                        <mxPoint x="330" y="160" as="targetPoint"/>
                    </mxGeometry>
                </mxCell>
                <mxCell id="59" value="Attend" style="text;html=1;strokeColor=none;fillColor=none;align=center;verticalAlign=middle;whiteSpace=wrap;rounded=0;fontSize=12;" parent="36" vertex="1">
                    <mxGeometry x="10" y="40" width="60" height="30" as="geometry"/>
                </mxCell>
                <mxCell id="61" value="Wander" style="text;html=1;strokeColor=none;fillColor=none;align=center;verticalAlign=middle;whiteSpace=wrap;rounded=0;fontSize=12;" parent="36" vertex="1">
                    <mxGeometry x="20" y="120" width="60" height="30" as="geometry"/>
                </mxCell>
                <mxCell id="37" value="Time" style="text;html=1;strokeColor=none;fillColor=none;align=center;verticalAlign=middle;whiteSpace=wrap;rounded=0;fontSize=12;" parent="32" vertex="1">
                    <mxGeometry x="215" y="640" width="60" height="30" as="geometry"/>
                </mxCell>
                <mxCell id="38" value="Production utility" style="text;html=1;strokeColor=none;fillColor=none;align=center;verticalAlign=middle;whiteSpace=wrap;rounded=0;fontSize=12;rotation=270;" parent="32" vertex="1">
                    <mxGeometry x="-20" y="525" width="130" height="30" as="geometry"/>
                </mxCell>
                <mxCell id="44" value="" style="endArrow=none;html=1;fontSize=12;entryX=0;entryY=0.75;entryDx=0;entryDy=0;exitX=1;exitY=0.75;exitDx=0;exitDy=0;dashed=1;" parent="32" source="36" target="36" edge="1">
                    <mxGeometry width="50" height="50" relative="1" as="geometry">
                        <mxPoint x="170.00000000000023" y="569.5899999999999" as="sourcePoint"/>
                        <mxPoint x="60" y="569.0899999999999" as="targetPoint"/>
                    </mxGeometry>
                </mxCell>
                <mxCell id="46" value="" style="endArrow=none;html=1;fontSize=12;exitX=0.793;exitY=1.042;exitDx=0;exitDy=0;entryX=0.189;entryY=0.35;entryDx=0;entryDy=0;entryPerimeter=0;exitPerimeter=0;" parent="32" source="38" target="36" edge="1">
                    <mxGeometry width="50" height="50" relative="1" as="geometry">
                        <mxPoint x="110" y="430" as="sourcePoint"/>
                        <mxPoint x="130" y="508" as="targetPoint"/>
                    </mxGeometry>
                </mxCell>
                <mxCell id="47" value="" style="endArrow=none;html=1;fontSize=12;exitX=0.75;exitY=1;exitDx=0;exitDy=0;" parent="32" source="38" target="36" edge="1">
                    <mxGeometry width="50" height="50" relative="1" as="geometry">
                        <mxPoint x="110" y="430" as="sourcePoint"/>
                        <mxPoint x="130" y="508" as="targetPoint"/>
                    </mxGeometry>
                </mxCell>
                <mxCell id="52" value="" style="endArrow=none;html=1;fontSize=12;exitX=0.892;exitY=0.55;exitDx=0;exitDy=0;exitPerimeter=0;entryX=1;entryY=0.75;entryDx=0;entryDy=0;" parent="32" source="36" target="36" edge="1">
                    <mxGeometry width="50" height="50" relative="1" as="geometry">
                        <mxPoint x="300" y="540" as="sourcePoint"/>
                        <mxPoint x="440" y="600" as="targetPoint"/>
                    </mxGeometry>
                </mxCell>
                <mxCell id="51" value="" style="endArrow=none;html=1;fontSize=12;entryX=0.892;entryY=0.8;entryDx=0;entryDy=0;entryPerimeter=0;" parent="32" target="36" edge="1">
                    <mxGeometry width="50" height="50" relative="1" as="geometry">
                        <mxPoint x="390" y="550" as="sourcePoint"/>
                        <mxPoint x="300" y="600" as="targetPoint"/>
                    </mxGeometry>
                </mxCell>
                <mxCell id="50" value="" style="endArrow=none;html=1;fontSize=12;exitX=0.73;exitY=0.8;exitDx=0;exitDy=0;exitPerimeter=0;entryX=0.541;entryY=0.45;entryDx=0;entryDy=0;entryPerimeter=0;" parent="32" source="36" target="36" edge="1">
                    <mxGeometry width="50" height="50" relative="1" as="geometry">
                        <mxPoint x="30" y="480" as="sourcePoint"/>
                        <mxPoint x="220" y="530" as="targetPoint"/>
                    </mxGeometry>
                </mxCell>
                <mxCell id="33" value="Attending" style="swimlane;fontSize=12;strokeColor=default;gradientColor=none;swimlaneFillColor=none;dashed=1;opacity=80;fillColor=none;swimlaneLine=0;" parent="WIyWlLk6GJQsqaUBKTNV-1" vertex="1">
                    <mxGeometry x="-50" y="50" width="400" height="750" as="geometry"/>
                </mxCell>
                <mxCell id="2I1Crz_ZXlMl6JZm2lD2-21" value="Production" style="swimlane;fontStyle=0;childLayout=stackLayout;horizontal=1;startSize=20;horizontalStack=0;resizeParent=1;resizeParentMax=0;resizeLast=0;collapsible=1;marginBottom=0;rounded=1;shadow=0;glass=0;fillColor=none;" parent="33" vertex="1">
                    <mxGeometry x="205" y="300" width="140" height="50" as="geometry"/>
                </mxCell>
                <mxCell id="2I1Crz_ZXlMl6JZm2lD2-22" value="identify-stimulus" style="text;strokeColor=none;fillColor=none;align=center;verticalAlign=middle;spacingLeft=4;spacingRight=4;overflow=hidden;points=[[0,0.5],[1,0.5]];portConstraint=eastwest;rotatable=0;rounded=1;shadow=0;glass=0;" parent="2I1Crz_ZXlMl6JZm2lD2-21" vertex="1">
                    <mxGeometry y="20" width="140" height="30" as="geometry"/>
                </mxCell>
                <mxCell id="16" value="Production" style="swimlane;fontStyle=0;childLayout=stackLayout;horizontal=1;startSize=20;horizontalStack=0;resizeParent=1;resizeParentMax=0;resizeLast=0;collapsible=1;marginBottom=0;rounded=1;shadow=0;glass=0;fillColor=none;" parent="33" vertex="1">
                    <mxGeometry x="205" y="390" width="140" height="50" as="geometry"/>
                </mxCell>
                <mxCell id="17" value="retrieve-response" style="text;strokeColor=none;fillColor=none;align=center;verticalAlign=middle;spacingLeft=4;spacingRight=4;overflow=hidden;points=[[0,0.5],[1,0.5]];portConstraint=eastwest;rotatable=0;rounded=1;shadow=0;glass=0;" parent="16" vertex="1">
                    <mxGeometry y="20" width="140" height="30" as="geometry"/>
                </mxCell>
                <mxCell id="2I1Crz_ZXlMl6JZm2lD2-32" value="Production" style="swimlane;fontStyle=0;childLayout=stackLayout;horizontal=1;startSize=20;horizontalStack=0;resizeParent=1;resizeParentMax=0;resizeLast=0;collapsible=1;marginBottom=0;rounded=1;shadow=0;glass=0;swimlaneFillColor=none;fillColor=none;" parent="33" vertex="1">
                    <mxGeometry x="55" y="300" width="140" height="50" as="geometry"/>
                </mxCell>
                <mxCell id="2I1Crz_ZXlMl6JZm2lD2-33" value="compiled-respond-if-O" style="text;strokeColor=none;fillColor=none;align=center;verticalAlign=middle;spacingLeft=4;spacingRight=4;overflow=hidden;points=[[0,0.5],[1,0.5]];portConstraint=eastwest;rotatable=0;rounded=1;shadow=0;glass=0;" parent="2I1Crz_ZXlMl6JZm2lD2-32" vertex="1">
                    <mxGeometry y="20" width="140" height="30" as="geometry"/>
                </mxCell>
                <mxCell id="2I1Crz_ZXlMl6JZm2lD2-34" value="Production" style="swimlane;fontStyle=0;childLayout=stackLayout;horizontal=1;startSize=20;horizontalStack=0;resizeParent=1;resizeParentMax=0;resizeLast=0;collapsible=1;marginBottom=0;rounded=1;shadow=0;glass=0;fillColor=none;" parent="33" vertex="1">
                    <mxGeometry x="205" y="570" width="140" height="50" as="geometry"/>
                </mxCell>
                <mxCell id="2I1Crz_ZXlMl6JZm2lD2-35" value="dont-respond-if-Q" style="text;strokeColor=none;fillColor=none;align=center;verticalAlign=middle;spacingLeft=4;spacingRight=4;overflow=hidden;points=[[0,0.5],[1,0.5]];portConstraint=eastwest;rotatable=0;rounded=1;shadow=0;glass=0;" parent="2I1Crz_ZXlMl6JZm2lD2-34" vertex="1">
                    <mxGeometry y="20" width="140" height="30" as="geometry"/>
                </mxCell>
                <mxCell id="20" value="Positive Reward&lt;br&gt;(to attend)" style="rounded=0;whiteSpace=wrap;html=1;fontSize=12;fillColor=none;" parent="33" vertex="1">
                    <mxGeometry x="140" y="660" width="120" height="50" as="geometry"/>
                </mxCell>
                <mxCell id="2I1Crz_ZXlMl6JZm2lD2-48" value="&lt;div style=&quot;font-size: 12px&quot;&gt;&lt;br&gt;&lt;/div&gt;" style="edgeStyle=orthogonalEdgeStyle;curved=1;rounded=0;orthogonalLoop=1;jettySize=auto;html=1;labelBackgroundColor=none;exitX=0.5;exitY=1;exitDx=0;exitDy=0;fontSize=12;" parent="33" source="19" target="2I1Crz_ZXlMl6JZm2lD2-34" edge="1">
                    <mxGeometry x="-0.2" y="55" relative="1" as="geometry">
                        <mxPoint as="offset"/>
                        <mxPoint x="203.99999999999977" y="470" as="sourcePoint"/>
                    </mxGeometry>
                </mxCell>
                <mxCell id="22" style="edgeStyle=orthogonalEdgeStyle;curved=1;html=1;labelBackgroundColor=none;fontSize=12;endArrow=classic;endFill=1;" parent="33" source="2I1Crz_ZXlMl6JZm2lD2-32" target="20" edge="1">
                    <mxGeometry relative="1" as="geometry">
                        <Array as="points">
                            <mxPoint x="125" y="640"/>
                            <mxPoint x="200" y="640"/>
                        </Array>
                    </mxGeometry>
                </mxCell>
                <mxCell id="21" style="edgeStyle=orthogonalEdgeStyle;curved=1;html=1;labelBackgroundColor=none;fontSize=12;endArrow=classic;endFill=1;" parent="33" source="2I1Crz_ZXlMl6JZm2lD2-34" target="20" edge="1">
                    <mxGeometry relative="1" as="geometry"/>
                </mxCell>
                <mxCell id="18" value="" style="edgeStyle=orthogonalEdgeStyle;curved=1;rounded=0;orthogonalLoop=1;jettySize=auto;html=1;endArrow=classic;endFill=1;" parent="33" source="2I1Crz_ZXlMl6JZm2lD2-21" target="16" edge="1">
                    <mxGeometry relative="1" as="geometry">
                        <mxPoint x="204" y="240" as="sourcePoint"/>
                        <mxPoint x="204" y="340" as="targetPoint"/>
                    </mxGeometry>
                </mxCell>
                <mxCell id="2I1Crz_ZXlMl6JZm2lD2-45" style="edgeStyle=orthogonalEdgeStyle;curved=1;rounded=0;orthogonalLoop=1;jettySize=auto;html=1;startArrow=none;endArrow=none;endFill=0;entryX=0.5;entryY=0;entryDx=0;entryDy=0;" parent="33" source="16" target="19" edge="1">
                    <mxGeometry relative="1" as="geometry">
                        <mxPoint x="203.99999999999977" y="340" as="targetPoint"/>
                    </mxGeometry>
                </mxCell>
                <mxCell id="19" value="Positive Reward&lt;br&gt;(to attend)" style="rounded=0;whiteSpace=wrap;html=1;fontSize=12;fillColor=none;" parent="33" vertex="1">
                    <mxGeometry x="215" y="470" width="120" height="50" as="geometry"/>
                </mxCell>
                <mxCell id="63" style="edgeStyle=orthogonalEdgeStyle;html=1;curved=1;" edge="1" parent="33" source="2I1Crz_ZXlMl6JZm2lD2-1" target="2I1Crz_ZXlMl6JZm2lD2-32">
                    <mxGeometry relative="1" as="geometry"/>
                </mxCell>
                <mxCell id="2I1Crz_ZXlMl6JZm2lD2-1" value="Production" style="swimlane;fontStyle=0;childLayout=stackLayout;horizontal=1;startSize=20;horizontalStack=0;resizeParent=1;resizeParentMax=0;resizeLast=0;collapsible=1;marginBottom=0;rounded=1;shadow=0;glass=0;fillColor=none;" parent="33" vertex="1">
                    <mxGeometry x="130" y="170" width="140" height="50" as="geometry"/>
                </mxCell>
                <mxCell id="2I1Crz_ZXlMl6JZm2lD2-2" value="attend" style="text;strokeColor=none;fillColor=none;align=center;verticalAlign=middle;spacingLeft=4;spacingRight=4;overflow=hidden;points=[[0,0.5],[1,0.5]];portConstraint=eastwest;rotatable=0;rounded=1;shadow=0;glass=0;" parent="2I1Crz_ZXlMl6JZm2lD2-1" vertex="1">
                    <mxGeometry y="20" width="140" height="30" as="geometry"/>
                </mxCell>
                <mxCell id="2I1Crz_ZXlMl6JZm2lD2-44" style="edgeStyle=orthogonalEdgeStyle;curved=1;rounded=0;orthogonalLoop=1;jettySize=auto;html=1;entryX=0.5;entryY=0;entryDx=0;entryDy=0;" parent="33" source="2I1Crz_ZXlMl6JZm2lD2-1" target="2I1Crz_ZXlMl6JZm2lD2-21" edge="1">
                    <mxGeometry relative="1" as="geometry"/>
                </mxCell>
                <mxCell id="9" value="Yes" style="edgeStyle=orthogonalEdgeStyle;curved=1;html=1;fontSize=12;labelBackgroundColor=none;labelPosition=center;verticalLabelPosition=bottom;align=center;verticalAlign=top;" parent="WIyWlLk6GJQsqaUBKTNV-1" source="4" target="UtOH4rOj3gADrwU_OdTL-1" edge="1">
                    <mxGeometry x="-0.1892" relative="1" as="geometry">
                        <mxPoint x="1" as="offset"/>
                    </mxGeometry>
                </mxCell>
                <mxCell id="7" value="No" style="edgeStyle=orthogonalEdgeStyle;html=1;fontSize=12;curved=1;exitX=0;exitY=0.5;exitDx=0;exitDy=0;labelBackgroundColor=none;labelPosition=center;verticalLabelPosition=bottom;align=center;verticalAlign=top;" parent="WIyWlLk6GJQsqaUBKTNV-1" source="4" target="2I1Crz_ZXlMl6JZm2lD2-1" edge="1">
                    <mxGeometry x="-0.4803" y="5" relative="1" as="geometry">
                        <Array as="points">
                            <mxPoint x="154" y="115"/>
                        </Array>
                        <mxPoint as="offset"/>
                    </mxGeometry>
                </mxCell>
                <mxCell id="2I1Crz_ZXlMl6JZm2lD2-43" value="stimulus&amp;nbsp;&amp;nbsp; &amp;nbsp; appearance" style="endArrow=none;dashed=1;html=1;dashPattern=1 3;strokeWidth=2;rounded=0;curved=1;fontStyle=2;spacingLeft=15;labelBackgroundColor=none;fontSize=13;" parent="WIyWlLk6GJQsqaUBKTNV-1" edge="1">
                    <mxGeometry x="-0.1111" y="10" width="50" height="50" relative="1" as="geometry">
                        <mxPoint x="-50" y="300" as="sourcePoint"/>
                        <mxPoint x="850" y="300" as="targetPoint"/>
                        <mxPoint as="offset"/>
                    </mxGeometry>
                </mxCell>
                <mxCell id="4" value="&lt;font style=&quot;font-size: 12px&quot;&gt;Attend utility&lt;br&gt;&amp;lt;&lt;br&gt;Wander utility&lt;br&gt;&lt;/font&gt;" style="rhombus;whiteSpace=wrap;html=1;fillColor=default;" parent="WIyWlLk6GJQsqaUBKTNV-1" vertex="1">
                    <mxGeometry x="280" y="70" width="140" height="90" as="geometry"/>
                </mxCell>
                <mxCell id="2I1Crz_ZXlMl6JZm2lD2-73" style="edgeStyle=orthogonalEdgeStyle;curved=1;rounded=0;orthogonalLoop=1;jettySize=auto;html=1;exitX=0.5;exitY=1;exitDx=0;exitDy=0;labelBackgroundColor=none;entryX=0.5;entryY=0;entryDx=0;entryDy=0;" parent="WIyWlLk6GJQsqaUBKTNV-1" source="2I1Crz_ZXlMl6JZm2lD2-52" target="2I1Crz_ZXlMl6JZm2lD2-74" edge="1">
                    <mxGeometry relative="1" as="geometry">
                        <mxPoint x="655.3333333333335" y="-220" as="targetPoint"/>
                    </mxGeometry>
                </mxCell>
                <mxCell id="2I1Crz_ZXlMl6JZm2lD2-52" value="Production" style="swimlane;fontStyle=0;childLayout=stackLayout;horizontal=1;startSize=20;horizontalStack=0;resizeParent=1;resizeParentMax=0;resizeLast=0;collapsible=1;marginBottom=0;rounded=1;shadow=0;glass=0;fillColor=none;" parent="WIyWlLk6GJQsqaUBKTNV-1" vertex="1">
                    <mxGeometry x="450" y="160" width="140" height="50" as="geometry"/>
                </mxCell>
                <mxCell id="2I1Crz_ZXlMl6JZm2lD2-53" value="retrieve-memory" style="text;strokeColor=none;fillColor=none;align=center;verticalAlign=middle;spacingLeft=4;spacingRight=4;overflow=hidden;points=[[0,0.5],[1,0.5]];portConstraint=eastwest;rotatable=0;rounded=1;shadow=0;glass=0;" parent="2I1Crz_ZXlMl6JZm2lD2-52" vertex="1">
                    <mxGeometry y="20" width="140" height="30" as="geometry"/>
                </mxCell>
                <mxCell id="UtOH4rOj3gADrwU_OdTL-1" value="Production" style="swimlane;fontStyle=0;childLayout=stackLayout;horizontal=1;startSize=20;horizontalStack=0;resizeParent=1;resizeParentMax=0;resizeLast=0;collapsible=1;marginBottom=0;rounded=1;shadow=0;glass=0;fillColor=none;" parent="WIyWlLk6GJQsqaUBKTNV-1" vertex="1">
                    <mxGeometry x="450" y="90" width="140" height="50" as="geometry"/>
                </mxCell>
                <mxCell id="UtOH4rOj3gADrwU_OdTL-2" value="start-wandering" style="text;strokeColor=none;fillColor=none;align=center;verticalAlign=middle;spacingLeft=4;spacingRight=4;overflow=hidden;points=[[0,0.5],[1,0.5]];portConstraint=eastwest;rotatable=0;rounded=1;shadow=0;glass=0;" parent="UtOH4rOj3gADrwU_OdTL-1" vertex="1">
                    <mxGeometry y="20" width="140" height="30" as="geometry"/>
                </mxCell>
                <mxCell id="UtOH4rOj3gADrwU_OdTL-6" value="any memory" style="edgeStyle=orthogonalEdgeStyle;rounded=0;orthogonalLoop=1;jettySize=auto;html=1;labelBackgroundColor=none;curved=1;labelPosition=center;verticalLabelPosition=top;align=center;verticalAlign=bottom;fontSize=12;" parent="WIyWlLk6GJQsqaUBKTNV-1" source="2I1Crz_ZXlMl6JZm2lD2-53" target="2I1Crz_ZXlMl6JZm2lD2-78" edge="1">
                    <mxGeometry x="0.5677" relative="1" as="geometry">
                        <Array as="points">
                            <mxPoint x="620" y="195"/>
                            <mxPoint x="620" y="110"/>
                        </Array>
                        <mxPoint as="offset"/>
                    </mxGeometry>
                </mxCell>
                <mxCell id="UtOH4rOj3gADrwU_OdTL-5" value="&lt;div style=&quot;font-size: 12px;&quot;&gt;remember task&lt;/div&gt;" style="edgeStyle=orthogonalEdgeStyle;rounded=0;orthogonalLoop=1;jettySize=auto;html=1;labelPosition=center;verticalLabelPosition=middle;align=center;verticalAlign=middle;labelBackgroundColor=none;fontSize=12;" parent="WIyWlLk6GJQsqaUBKTNV-1" source="2I1Crz_ZXlMl6JZm2lD2-53" target="2I1Crz_ZXlMl6JZm2lD2-57" edge="1">
                    <mxGeometry y="-5" relative="1" as="geometry">
                        <mxPoint as="offset"/>
                    </mxGeometry>
                </mxCell>
                <mxCell id="UtOH4rOj3gADrwU_OdTL-7" style="edgeStyle=orthogonalEdgeStyle;curved=1;rounded=0;orthogonalLoop=1;jettySize=auto;html=1;labelBackgroundColor=none;" parent="WIyWlLk6GJQsqaUBKTNV-1" source="2I1Crz_ZXlMl6JZm2lD2-79" target="2I1Crz_ZXlMl6JZm2lD2-52" edge="1">
                    <mxGeometry relative="1" as="geometry">
                        <Array as="points">
                            <mxPoint x="704" y="125"/>
                            <mxPoint x="704" y="170"/>
                        </Array>
                    </mxGeometry>
                </mxCell>
                <mxCell id="28" value="" style="edgeStyle=orthogonalEdgeStyle;curved=1;html=1;labelBackgroundColor=none;fontSize=12;endArrow=none;endFill=0;" parent="WIyWlLk6GJQsqaUBKTNV-1" source="2I1Crz_ZXlMl6JZm2lD2-56" target="26" edge="1">
                    <mxGeometry relative="1" as="geometry"/>
                </mxCell>
                <mxCell id="2I1Crz_ZXlMl6JZm2lD2-56" value="Production" style="swimlane;fontStyle=0;childLayout=stackLayout;horizontal=1;startSize=20;horizontalStack=0;resizeParent=1;resizeParentMax=0;resizeLast=0;collapsible=1;marginBottom=0;rounded=1;shadow=0;glass=0;strokeColor=default;fillColor=none;" parent="WIyWlLk6GJQsqaUBKTNV-1" vertex="1">
                    <mxGeometry x="690" y="160" width="140" height="50" as="geometry">
                        <mxRectangle x="280" y="90" width="90" height="20" as="alternateBounds"/>
                    </mxGeometry>
                </mxCell>
                <mxCell id="2I1Crz_ZXlMl6JZm2lD2-57" value="remember-to-attend" style="text;strokeColor=none;fillColor=none;align=center;verticalAlign=middle;spacingLeft=4;spacingRight=4;overflow=hidden;points=[[0,0.5],[1,0.5]];portConstraint=eastwest;rotatable=0;rounded=1;shadow=0;glass=0;" parent="2I1Crz_ZXlMl6JZm2lD2-56" vertex="1">
                    <mxGeometry y="20" width="140" height="30" as="geometry"/>
                </mxCell>
                <mxCell id="2I1Crz_ZXlMl6JZm2lD2-78" value="Production" style="swimlane;fontStyle=0;childLayout=stackLayout;horizontal=1;startSize=20;horizontalStack=0;resizeParent=1;resizeParentMax=0;resizeLast=0;collapsible=1;marginBottom=0;rounded=1;shadow=0;glass=0;strokeColor=default;fillColor=none;" parent="WIyWlLk6GJQsqaUBKTNV-1" vertex="1">
                    <mxGeometry x="690" y="90" width="140" height="50" as="geometry">
                        <mxRectangle x="280" y="30" width="90" height="20" as="alternateBounds"/>
                    </mxGeometry>
                </mxCell>
                <mxCell id="2I1Crz_ZXlMl6JZm2lD2-79" value="attend-memory" style="text;strokeColor=none;fillColor=none;align=center;verticalAlign=middle;spacingLeft=4;spacingRight=4;overflow=hidden;points=[[0,0.5],[1,0.5]];portConstraint=eastwest;rotatable=0;rounded=1;shadow=0;glass=0;" parent="2I1Crz_ZXlMl6JZm2lD2-78" vertex="1">
                    <mxGeometry y="20" width="140" height="30" as="geometry"/>
                </mxCell>
                <mxCell id="UtOH4rOj3gADrwU_OdTL-9" style="edgeStyle=orthogonalEdgeStyle;curved=1;rounded=0;orthogonalLoop=1;jettySize=auto;html=1;labelBackgroundColor=none;" parent="WIyWlLk6GJQsqaUBKTNV-1" source="UtOH4rOj3gADrwU_OdTL-1" target="2I1Crz_ZXlMl6JZm2lD2-52" edge="1">
                    <mxGeometry relative="1" as="geometry"/>
                </mxCell>
                <mxCell id="23" style="edgeStyle=orthogonalEdgeStyle;curved=1;html=1;labelBackgroundColor=none;fontSize=12;endArrow=classic;endFill=1;" parent="WIyWlLk6GJQsqaUBKTNV-1" source="20" edge="1">
                    <mxGeometry relative="1" as="geometry">
                        <mxPoint x="310" y="90" as="targetPoint"/>
                        <Array as="points">
                            <mxPoint x="154" y="770"/>
                            <mxPoint x="-40" y="770"/>
                            <mxPoint x="-40" y="90"/>
                        </Array>
                    </mxGeometry>
                </mxCell>
                <mxCell id="35" style="edgeStyle=orthogonalEdgeStyle;curved=1;html=1;entryX=1;entryY=0.5;entryDx=0;entryDy=0;labelBackgroundColor=none;fontSize=12;endArrow=classic;endFill=1;" parent="WIyWlLk6GJQsqaUBKTNV-1" source="26" target="2I1Crz_ZXlMl6JZm2lD2-2" edge="1">
                    <mxGeometry relative="1" as="geometry"/>
                </mxCell>
            </root>
        </mxGraphModel>
    </diagram>
</mxfile>